<?xml version="1.0" encoding="utf-8"?>
<svg xmlns="http://www.w3.org/2000/svg" viewBox="1.3849 0.9414 26.9375 27.875" width="26.9375px" height="27.875px" xmlns:bx="https://boxy-svg.com"><g id="layer1" transform="matrix(1, 0, 0, 1, 69.65223797637577, -11.684738333295861)"><g id="svg-1"><g id="group-1" transform="matrix(1, 0, 0, 1, -71.329827, 10.501151)"><path style="fill: rgb(231, 49, 0); fill-opacity: 1; stroke: rgb(0, 0, 0); stroke-linecap: butt; stroke-linejoin: bevel; stroke-miterlimit: 4; stroke-opacity: 1; stroke-dasharray: none;" d="M 5.971 21.182 L 11.971 14.182 L 27.971 14.182 L 20.971 21.182 L 5.971 21.182 Z" id="path-1"/><path style="stroke: rgb(0, 0, 0); stroke-linecap: butt; stroke-linejoin: bevel; stroke-opacity: 1; fill-opacity: 1; stroke-miterlimit: 4; stroke-dasharray: none; fill: none;" d="m 28,6 -6,6 0,16 6,-7 z" id="path3776"/><path style="stroke: rgb(0, 0, 0); stroke-linecap: butt; stroke-linejoin: miter; stroke-opacity: 1; fill-opacity: 1; stroke-miterlimit: 4; stroke-dasharray: none; fill: none;" d="m 5.5,12.5 0,15 16,0 0,-15 z" id="path4436"/><path style="fill: rgb(231, 49, 0); fill-opacity: 1; stroke: rgb(0, 0, 0); stroke-linecap: butt; stroke-linejoin: bevel; stroke-miterlimit: 4; stroke-opacity: 1; stroke-dasharray: none;" d="m 6,12 6,-7 16,0 -7,7 z" id="path3774"/><path style="fill:#00ff00;fill-opacity:1;stroke:#000000;stroke-width:2.18181825;stroke-miterlimit:4;stroke-opacity:1;stroke-dasharray:none" id="path3807-0-7-9-1" d="M 17,22 A 6,6 0 1 1 5,22 6,6 0 1 1 17,22 z" transform="matrix(0.48958335,0,0,0.48958335,5.6145831,-5.7083338)"/><path style="fill:#00ff00;fill-opacity:1;stroke:#000000;stroke-width:2.18181825;stroke-miterlimit:4;stroke-opacity:1;stroke-dasharray:none" id="path3807-0-7-9-1-9" d="M 17,22 A 6,6 0 1 1 5,22 6,6 0 1 1 17,22 z" transform="matrix(0.48958335,0,0,0.48958335,21.614583,-5.7083338)"/><path style="fill:#00ff00;fill-opacity:1;stroke:#000000;stroke-width:2.18181825;stroke-miterlimit:4;stroke-opacity:1;stroke-dasharray:none" id="path3807-0-7-9-1-8" d="M 17,22 A 6,6 0 1 1 5,22 6,6 0 1 1 17,22 z" transform="matrix(0.48958335,0,0,0.48958335,21.677083,10.229166)"/><path style="fill:#00ff00;fill-opacity:1;stroke:#000000;stroke-width:2.18181825;stroke-miterlimit:4;stroke-opacity:1;stroke-dasharray:none" id="path3807-0-7-9-1-6" d="M 17,22 A 6,6 0 1 1 5,22 6,6 0 1 1 17,22 z" transform="matrix(0.48958335,0,0,0.48958335,0.61458315,1.1666664)"/><path style="fill:#00ff00;fill-opacity:1;stroke:#000000;stroke-width:2.18181825;stroke-miterlimit:4;stroke-opacity:1;stroke-dasharray:none" id="path3807-0-7-9-1-5" d="M 17,22 A 6,6 0 1 1 5,22 6,6 0 1 1 17,22 z" transform="matrix(0.48958335,0,0,0.48958335,16.614583,1.2916662)"/><path style="fill: rgb(0, 255, 0); fill-opacity: 1; stroke: rgb(0, 0, 0); stroke-width: 2.18182; stroke-miterlimit: 4; stroke-opacity: 1; stroke-dasharray: none;" id="path3807-0-7-9-1-0" d="M 17,22 A 6,6 0 1 1 5,22 6,6 0 1 1 17,22 z" transform="matrix(0.48958335,0,0,0.48958335,0.61458315,16.291666)"/><path style="fill: rgb(0, 255, 0); fill-opacity: 1; stroke: rgb(0, 0, 0); stroke-width: 2.18182; stroke-miterlimit: 4; stroke-opacity: 1; stroke-dasharray: none;" id="path3807-0-7-9-1-2" d="M 17,22 A 6,6 0 1 1 5,22 6,6 0 1 1 17,22 z" transform="matrix(0.48958335,0,0,0.48958335,16.614583,16.291666)"/><path d="M 12.928 17.682 H 14.322 V 20.443 H 17.111 V 21.823 H 14.322 V 24.584 H 12.928 V 21.823 H 10.139 V 20.443 H 12.928 Z" bx:shape="cross 10.139 17.682 6.972 6.902 1.38 1.394 0.5 1@9ce06237" style="fill: rgb(0, 255, 0);"/></g></g></g></svg>